<svg xmlns="http://www.w3.org/2000/svg" xmlns:xlink="http://www.w3.org/1999/xlink" width="500" zoomAndPan="magnify" viewBox="0 0 375 149.999998" height="200" preserveAspectRatio="xMidYMid meet" version="1.0"><defs><g/><clipPath id="54664ba622"><path d="M 25.207031 100.652344 L 118.59375 100.652344 L 118.59375 111.039062 L 25.207031 111.039062 Z M 25.207031 100.652344 " clip-rule="nonzero"/></clipPath><clipPath id="b8db87c1ef"><path d="M 143.570312 39.414062 L 346.816406 39.414062 L 346.816406 49.800781 L 143.570312 49.800781 Z M 143.570312 39.414062 " clip-rule="nonzero"/></clipPath></defs><g clip-path="url(#54664ba622)"><path fill="#00ff99" d="M 25.207031 100.652344 L 118.589844 100.652344 L 118.589844 111.039062 L 25.207031 111.039062 Z M 25.207031 100.652344 " fill-opacity="1" fill-rule="nonzero"/></g><g clip-path="url(#b8db87c1ef)"><path fill="#00ff99" d="M 143.570312 39.414062 L 346.800781 39.414062 L 346.800781 49.800781 L 143.570312 49.800781 Z M 143.570312 39.414062 " fill-opacity="1" fill-rule="nonzero"/></g><g fill="#00ff99" fill-opacity="1"><g transform="translate(24.101957, 83.615364)"><g><path d="M 2.53125 0 L 2.53125 -6.9375 L 21.828125 -33.53125 L 3.203125 -33.53125 L 3.203125 -42.21875 L 34.25 -42.21875 L 34.25 -35.28125 L 15.015625 -8.6875 L 34.734375 -8.6875 L 34.734375 0 Z M 2.53125 0 "/></g></g></g><g fill="#00ff99" fill-opacity="1"><g transform="translate(73.85382, 83.615364)"><g><path d="M 31.1875 0 L 31.1875 -17.015625 L 14.65625 -17.015625 L 14.65625 0 L 5.0625 0 L 5.0625 -42.21875 L 14.65625 -42.21875 L 14.65625 -26 L 31.1875 -26 L 31.1875 -42.21875 L 40.765625 -42.21875 L 40.765625 0 Z M 31.1875 0 "/></g></g></g><g fill="#00ff99" fill-opacity="1"><g transform="translate(142.415107, 104.832117)"><g><path d="M 15.203125 0 L 15.203125 -33.234375 L 1.8125 -33.234375 L 1.8125 -42.21875 L 38.171875 -42.21875 L 38.171875 -33.234375 L 24.78125 -33.234375 L 24.78125 0 Z M 15.203125 0 "/></g></g></g><g fill="#00ff99" fill-opacity="1"><g transform="translate(194.880645, 104.832117)"><g><path d="M 5.0625 0 L 5.0625 -42.21875 L 32.8125 -42.21875 L 32.8125 -34.140625 L 14.59375 -34.140625 L 14.59375 -25.390625 L 31.1875 -25.390625 L 31.1875 -17.375 L 14.59375 -17.375 L 14.59375 -8.140625 L 33.46875 -8.140625 L 33.46875 0 Z M 5.0625 0 "/></g></g></g><g fill="#00ff99" fill-opacity="1"><g transform="translate(243.908861, 104.832117)"><g><path d="M 24.421875 0.84375 C 20.160156 0.84375 16.378906 -0.0859375 13.078125 -1.953125 C 9.785156 -3.828125 7.210938 -6.410156 5.359375 -9.703125 C 3.515625 -13.003906 2.59375 -16.804688 2.59375 -21.109375 C 2.59375 -25.410156 3.515625 -29.207031 5.359375 -32.5 C 7.210938 -35.800781 9.773438 -38.382812 13.046875 -40.25 C 16.328125 -42.125 20.097656 -43.0625 24.359375 -43.0625 C 27.941406 -43.0625 31.21875 -42.378906 34.1875 -41.015625 C 37.164062 -39.648438 39.671875 -37.71875 41.703125 -35.21875 C 43.734375 -32.726562 45.148438 -29.796875 45.953125 -26.421875 L 36.0625 -26.421875 C 35.257812 -28.753906 33.832031 -30.59375 31.78125 -31.9375 C 29.726562 -33.28125 27.359375 -33.953125 24.671875 -33.953125 C 22.296875 -33.953125 20.171875 -33.410156 18.296875 -32.328125 C 16.429688 -31.242188 14.972656 -29.734375 13.921875 -27.796875 C 12.878906 -25.867188 12.359375 -23.640625 12.359375 -21.109375 C 12.359375 -18.578125 12.878906 -16.34375 13.921875 -14.40625 C 14.972656 -12.476562 16.421875 -10.972656 18.265625 -9.890625 C 20.117188 -8.804688 22.234375 -8.265625 24.609375 -8.265625 C 27.378906 -8.265625 29.8125 -8.976562 31.90625 -10.40625 C 34 -11.832031 35.488281 -13.75 36.375 -16.15625 L 46.265625 -16.15625 C 45.578125 -12.738281 44.207031 -9.753906 42.15625 -7.203125 C 40.101562 -4.648438 37.554688 -2.671875 34.515625 -1.265625 C 31.484375 0.140625 28.117188 0.84375 24.421875 0.84375 Z M 24.421875 0.84375 "/></g></g></g><g fill="#00ff99" fill-opacity="1"><g transform="translate(305.058137, 104.832117)"><g><path d="M 31.1875 0 L 31.1875 -17.015625 L 14.65625 -17.015625 L 14.65625 0 L 5.0625 0 L 5.0625 -42.21875 L 14.65625 -42.21875 L 14.65625 -26 L 31.1875 -26 L 31.1875 -42.21875 L 40.765625 -42.21875 L 40.765625 0 Z M 31.1875 0 "/></g></g></g></svg>